# xmcd
#
# Track frame offsets:
#	150
#	12582
#	23235
#	36425
#	48170
#	63447
#	73980
#	90262
#	99787
#	113292
#	125802
#	138037
#	148117
#	161805
#	173467
#	189285
#	200085
#	214485
#	223685
#	233137
#
# Disc length: 3295
#
# Revision: 1
# Processed by: cddbd v1.5.1PL0 Copyright (c) Steve Scherf et al.
# Submitted via: ExactAudioCopy v0.90b2
# Normalized: r0:DSETVAR1,TDELIM( - )
#
DISCID=1e0cdd14
DTITLE=Various Artist - The Promised Land (Songs of Inspiration)
DYEAR=2000
DGENRE=Gospel
TTITLE0=Hank Williams - I Saw The Light
TTITLE1=Kitty Wells - Lord I'm Coming Home
TTITLE2=Webb Pierce - Standing on the Promises
TTITLE3=Chuck Wagon Gang - Will There Be Any Stars in My Crown
TTITLE4=Charlie Rich - Down by the Riverside
TTITLE5=Ferlin Husky - Wings of a Dove
TTITLE6=Ralph Stanley - Hide Me, Rock of Ages
TTITLE7=Guy and Ralna - Do Lord
TTITLE8=The Statesmen - How Long Has It Been
TTITLE9=Conway Twitty - Who Will Pray for Me
TTITLE10=Jim Reeves - God Be with You
TTITLE11=The Jordanaires - Joshua Fit the Battle of Jericho
TTITLE12=Johnny Cash - If We Never Meet Again
TTITLE13=Lee Greenwood - Bound for the Promised Land
TTITLE14=Tennessee Ernie Ford - Sweet Peace, the Gift of God's Love
TTITLE15=The Speers - I've Got That Old Time Religion
TTITLE16=Eddy Arnold - 'Twas the Dawn of a Beautiful Day
TTITLE17=The Statler Brothers - There Is Power in the Blood
TTITLE18=J.D. Sumner and the Stamps - Give the World a (Happy) Smile
TTITLE19=Donna Fargo - You Can't Be a Beacon (If Your Light Don't Shine)
EXTD=
EXTT0=
EXTT1=
EXTT2=
EXTT3=
EXTT4=
EXTT5=
EXTT6=
EXTT7=
EXTT8=
EXTT9=
EXTT10=
EXTT11=
EXTT12=
EXTT13=
EXTT14=
EXTT15=
EXTT16=
EXTT17=
EXTT18=
EXTT19=
PLAYORDER=
